M48
;DRILL file {PCBnew (20081229-unstable)} date 1/9/2009 6:20:37 AM
;FORMAT={-.-/ absolute / inch / decimal}
R,T
VER,1
FMAT,2
INCH,TZ
TCST,OFF
ICI,OFF
ATC,ON
T1C0.025
T2C0.032
T3C0.040
T4C0.042
T5C0.045
T6C0.059
T7C0.060
T8C0.120
T9C0.160
%
M47
G05
M72
T1
X0.800Y2.950
X0.900Y1.375
X1.000Y0.650
X1.050Y2.550
X1.050Y2.450
X1.050Y2.150
X1.050Y1.475
X1.375Y2.225
X1.450Y2.775
X1.450Y2.550
X1.450Y2.150
X1.700Y3.450
X1.800Y2.350
X2.000Y1.375
X2.100Y2.350
X2.200Y3.450
X2.300Y2.000
X2.375Y1.175
X2.450Y2.550
X2.450Y2.450
X2.450Y2.150
X2.450Y1.475
X2.525Y2.225
X2.775Y2.225
X2.850Y2.775
X2.850Y2.550
X2.850Y2.150
X3.100Y3.450
X3.200Y2.350
X3.500Y2.350
X3.525Y1.475
X3.600Y3.450
X3.700Y2.000
X3.750Y1.375
X3.850Y2.550
X3.850Y2.450
X3.850Y2.150
X3.850Y1.475
X3.925Y2.225
X4.175Y2.225
X4.250Y2.775
X4.250Y2.550
X4.250Y2.150
X4.500Y2.950
X4.675Y1.375
T2
X0.650Y1.350
X0.650Y1.250
X0.650Y1.150
X0.650Y1.050
X0.650Y0.950
X0.650Y0.850
X1.000Y1.000
X1.100Y1.000
X1.200Y1.000
X1.300Y1.000
X1.400Y1.000
X1.500Y1.000
X1.600Y1.000
X1.600Y0.700
X1.700Y1.000
X1.700Y0.700
X1.750Y1.550
X1.750Y1.250
X1.800Y1.000
X1.800Y0.700
X1.850Y1.550
X1.850Y1.250
X1.900Y1.000
X1.900Y0.700
X2.000Y1.000
X2.000Y0.700
X2.100Y1.000
X2.100Y0.700
X2.200Y1.000
X2.200Y0.700
X2.300Y1.000
X2.300Y0.700
X2.400Y1.000
X2.400Y0.700
X2.500Y1.000
X2.500Y0.700
X3.150Y1.550
X3.150Y1.250
X3.250Y1.550
X3.250Y1.250
X3.300Y0.600
X3.300Y0.450
X3.300Y0.350
X3.400Y0.600
X3.400Y0.500
X3.400Y0.350
X4.550Y1.550
X4.550Y1.250
X4.650Y1.550
X4.650Y1.250
X4.850Y2.100
X4.850Y2.000
X4.850Y1.650
X4.850Y1.550
T3
X0.350Y2.750
X0.350Y2.550
X1.225Y1.350
X1.245Y0.550
X1.300Y0.450
X1.355Y0.550
X1.400Y1.350
X1.410Y0.450
X1.465Y0.550
X1.518Y0.450
X1.570Y0.550
X1.600Y1.450
X1.600Y1.250
X1.624Y0.450
X1.680Y0.550
X1.736Y0.450
X1.790Y0.550
X1.844Y0.450
X1.900Y0.550
X1.950Y3.500
X1.950Y3.300
X1.952Y0.450
X2.005Y0.550
X2.062Y0.450
X2.115Y0.550
X2.170Y0.450
X2.225Y0.550
X2.278Y0.450
X2.335Y0.550
X2.388Y0.450
X2.440Y0.550
X2.488Y0.450
X2.550Y0.550
X2.625Y1.350
X2.800Y1.350
X3.000Y1.450
X3.000Y1.250
X4.025Y1.350
X4.200Y1.350
X4.400Y1.450
X4.400Y1.250
X4.950Y2.750
X4.950Y2.550
X5.050Y2.250
X5.050Y2.150
X5.050Y2.050
X5.050Y1.750
X5.050Y1.650
X5.050Y1.550
T4
X4.650Y1.800
X4.750Y1.800
X4.850Y1.800
T5
X0.700Y2.650
X0.700Y2.050
X1.800Y2.650
X1.800Y2.050
X2.100Y2.650
X2.100Y2.050
X3.200Y2.650
X3.200Y2.050
X3.500Y2.650
X3.500Y2.050
X4.600Y2.650
X4.600Y2.050
T6
X3.765Y0.650
X3.845Y0.895
X3.845Y0.415
X4.315Y0.415
X4.320Y0.895
T7
X0.350Y2.300
X0.350Y2.100
X0.350Y1.900
X0.350Y1.700
X0.350Y1.500
X0.350Y1.300
X0.350Y1.100
X0.350Y0.900
X0.950Y3.450
X1.150Y3.450
X1.350Y3.450
X1.550Y3.450
X2.350Y3.450
X2.550Y3.450
X2.750Y3.450
X2.950Y3.450
X3.250Y3.450
X3.450Y3.450
X3.750Y3.450
X3.950Y3.450
X4.150Y3.450
X4.350Y3.450
X5.050Y1.250
X5.050Y1.050
X5.050Y0.850
T8
X0.975Y0.450
X2.825Y0.450
T9
X0.450Y3.250
X0.450Y0.450
X1.950Y2.850
X1.950Y1.850
X3.350Y2.850
X3.350Y1.850
X4.850Y3.250
X4.850Y0.450
T0
M30
